<?xml version="1.0" encoding="utf-8"?>
<!-- Generator: Adobe Illustrator 26.0.3, SVG Export Plug-In . SVG Version: 6.00 Build 0)  -->
<svg version="1.1" id="Layer_1" xmlns="http://www.w3.org/2000/svg" xmlns:xlink="http://www.w3.org/1999/xlink" x="0px" y="0px"
	 viewBox="0 0 407 177" style="enable-background:new 0 0 407 177;" xml:space="preserve">
<style type="text/css">
	.st0{fill:#0071BC;}
</style>
<rect x="407" y="-6" style="fill:none;" width="4" height="0"/>
<g>
	<path class="st0" d="M19.37,61.77c2.87-22.15,4.31-38.55,4.31-49.2c0-3.04-0.09-5.16-0.25-6.34c19.95-1.52,40.32-2.28,61.12-2.28
		c25.87,0,40.4,1.61,43.62,4.82c1.35,1.36,2.03,3.72,2.03,7.1c0,6.76-1.61,13.36-4.82,19.78c-7.78-3.55-21.22-5.33-40.32-5.33
		c-6.26,0-13.61,0.25-22.06,0.76c-0.34,5.75-1.86,18.6-4.56,38.55c22.48,0,36.43-0.34,41.84-1.01c0.34,3.38,0.51,6.34,0.51,8.88
		c0,10.99-3.72,16.91-11.16,17.75c-4.06,0.34-15.72,0.51-35,0.51l-3.3,26.37c-2.03,14.54-3.04,25.7-3.04,33.47
		c0,5.75,0.34,10.74,1.01,14.96c-5.58,1.86-13.27,2.79-23.08,2.79c-7.1,0-12.13-1.27-15.09-3.8c-2.96-2.54-4.44-6.51-4.44-11.92
		c0-1.01,0.42-4.52,1.27-10.52c0.84-6,2.37-17.07,4.56-33.22C14.72,97.74,17,80.37,19.37,61.77z"/>
	<path class="st0" d="M145.41,31.08c-0.34-3.04-0.51-5.92-0.51-8.62c0-11.16,4.22-16.9,12.68-17.24c3.89-0.17,12.09-0.25,24.6-0.25
		h45.39c23.5,0,37.95-0.25,43.36-0.76c0.51,6.09,0.76,9.3,0.76,9.64c0,10.48-4.14,15.81-12.43,15.98
		c-4.91,0.17-15.89,0.25-32.97,0.25c-1.01,6.93-2.54,17.59-4.56,31.95c-2.03,14.37-3.51,24.98-4.44,31.83
		c-0.93,6.85-1.99,15.01-3.17,24.47c-1.18,9.47-2.03,17.16-2.54,23.08c-0.51,5.92-0.76,10.82-0.76,14.71
		c0,5.41,0.34,10.23,1.01,14.46c-5.58,1.86-13.19,2.79-22.82,2.79c-7.1,0-12.17-1.27-15.22-3.8c-3.04-2.54-4.56-6.51-4.56-11.92
		c0-1.86,0.93-9.17,2.79-21.94c1.86-12.76,4.14-29.37,6.85-49.83c2.7-20.45,4.9-38.88,6.59-55.28
		C166.03,30.57,152.68,30.74,145.41,31.08z"/>
	<path class="st0" d="M371.07,129.48c12.51,4.56,18.77,10.31,18.77,17.24c0,7.1-5.5,13.61-16.48,19.53
		c-10.99,5.92-24.01,8.88-39.05,8.88c-20.97,0-37.49-6.3-49.58-18.89c-12.09-12.59-18.13-29.46-18.13-50.59
		c0-17.58,2.92-33.3,8.75-47.17c5.83-13.86,13.4-24.77,22.7-32.71c9.3-7.94,19.15-13.9,29.54-17.88c10.4-3.97,20.83-5.96,31.32-5.96
		c12.68,0,23.24,2.71,31.7,8.11c8.45,5.41,12.68,12.68,12.68,21.81c0,4.91-2.2,8.92-6.59,12.05c-4.4,3.13-10.14,5.12-17.24,5.96
		c-1.52-7.44-4.61-13.02-9.26-16.74c-4.65-3.72-9.93-5.58-15.85-5.58c-13.53,0-24.43,7.23-32.71,21.68
		c-8.29,14.46-12.43,31.32-12.43,50.59c0,14.71,2.79,26.67,8.37,35.88c5.58,9.22,14.03,13.82,25.36,13.82
		C354.08,149.51,363.46,142.83,371.07,129.48z"/>
</g>
</svg>
