<svg id="Layer_1" data-name="Layer 1" xmlns="http://www.w3.org/2000/svg" viewBox="0 0 1907.02 270.65"><path d="M20.46,78.61Q25,43.29,25,26.3a55.89,55.89,0,0,0-.27-6.74q31.81-2.43,65-2.43,41.27,0,46.38,5.13c1.44,1.44,2.16,3.95,2.16,7.55a46.46,46.46,0,0,1-5.13,21q-12.4-5.67-42.87-5.66-10,0-23.45.8Q66.29,55.16,62,87q35.87,0,44.49-1.08.54,5.4.54,9.43,0,17.54-11.86,18.88-6.48.54-37.21.54l-3.51,28Q51.21,166,51.2,178.37a102,102,0,0,0,1.08,15.91q-8.89,3-24.54,3-11.32,0-16-4T7,180.53q0-1.62,1.35-11.19T13.18,134Q16.69,108.26,20.46,78.61Z" transform="translate(-6.98 6)"/><path d="M183,133.61q-3.22,30.48-3.23,45.84a102.89,102.89,0,0,0,1.08,12.94A54.31,54.31,0,0,1,158,197q-20.49,0-20.49-15.1,0-2.15,5.39-37.07t5.39-43q0-11.86-8.36-13.76,1.08-8.9,8.5-15.63t19.27-6.74q22.38,0,22.38,22.11a61,61,0,0,1-1.08,10q7.82-15.9,17.66-23.86t18.47-8q13.76,0,13.75,14.29a30.41,30.41,0,0,1-3,12.67,28.26,28.26,0,0,1-7.55,10.24Q220,96.41,211.62,96.4,192.75,96.4,183,133.61Z" transform="translate(-6.98 6)"/><path d="M327.83,160.3a34.49,34.49,0,0,1,10.11,7.55q4.17,4.59,4.18,9.17,0,9.43-13.89,15.77t-32,6.34q-23.19,0-39.77-11.46t-16.58-35.46A92,92,0,0,1,261.64,92Q283.33,65.67,317,65.67q15.38,0,26,8.62T353.71,98q0,24-17.93,37.34t-45.16,13.35a75.54,75.54,0,0,1-8.09-.54q0,26.7,21.3,26.69Q317.86,174.86,327.83,160.3Zm-40.17-29.12a19.51,19.51,0,0,0,17-9,36,36,0,0,0,6.2-20.89,12.23,12.23,0,0,0-2.69-8.09,7.94,7.94,0,0,0-6.2-3.24q-6.48,0-11.73,11.19t-6.61,29.79A21.48,21.48,0,0,0,287.66,131.18Z" transform="translate(-6.98 6)"/><path d="M453.74,160.3a34.49,34.49,0,0,1,10.11,7.55Q468,172.44,468,177q0,9.43-13.88,15.77t-31.95,6.34q-23.19,0-39.77-11.46t-16.58-35.46A92,92,0,0,1,387.55,92Q409.26,65.67,443,65.67q15.36,0,26,8.62T479.63,98q0,24-17.93,37.34t-45.17,13.35a75.38,75.38,0,0,1-8.08-.54q0,26.7,21.3,26.69Q443.76,174.86,453.74,160.3Zm-40.17-29.12a19.5,19.5,0,0,0,17-9,36,36,0,0,0,6.21-20.89,12.23,12.23,0,0,0-2.7-8.09,7.94,7.94,0,0,0-6.2-3.24q-6.48,0-11.73,11.19t-6.61,29.79A21.48,21.48,0,0,0,413.57,131.18Z" transform="translate(-6.98 6)"/><path d="M496.61,46a83,83,0,0,1-.54-9.16q0-17.8,13.48-18.34,6.21-.27,26.16-.27H584q37.47,0,46.11-.81.79,9.71.8,10.25,0,16.73-13.21,17-7.81.27-35,.27Q581,56,577.77,78.88t-4.72,33.84q-1.49,10.92-3.37,26T567,163.27q-.81,9.43-.81,15.64a97.93,97.93,0,0,0,1.08,15.37q-8.89,3-24.26,3-11.32,0-16.18-4T522,180.53q0-3,3-23.33t7.28-53q4.32-32.61,7-58.78Q508.2,45.44,496.61,46Z" transform="translate(-6.98 6)"/><path d="M688.31,166.24q17-43.41,18.61-75a42.08,42.08,0,0,0-4-18.6,36.63,36.63,0,0,1,21.84-6.74q23.19,0,23.19,21.3,0,19.68-14.43,52a379.07,379.07,0,0,1-32,58.24q-8.62,12.94-14.15,20.36a170.8,170.8,0,0,1-14.16,16.31,76.5,76.5,0,0,1-16.71,13.48,85,85,0,0,1-19.42,7.69,95.14,95.14,0,0,1-25.07,3.1q-17.81,0-28.58-5.66T572.64,238.5q0-11.33,18.88-21,1.89,7,9.16,11.87a26.53,26.53,0,0,0,14.83,4.85q25.08,0,47.46-38.56-.56-15.63-14.16-57.83T622,85.35a52.23,52.23,0,0,1,14.56-13.89q8.36-5.25,15.91-5.25A19.57,19.57,0,0,1,666.34,72q6.06,5.81,9,17.39Q682.65,118.79,688.31,166.24Z" transform="translate(-6.98 6)"/><path d="M854.13,65.94q15.63,0,25.47,11.86t9.85,36.67q0,36.39-17.8,60.53t-40.44,24.13q-16.19,0-28.58-12.13-5.4,29.92-5.39,39.9,0,11.6,8.62,17-7.54,20.76-28.58,20.76-21.84,0-21.84-26.15,0-12.41,10-70.78t10-66.19Q775.4,90.21,767,88q1.62-10.51,9.43-16.44a28.71,28.71,0,0,1,17.8-5.93q22.9,0,22.92,21.84a19.26,19.26,0,0,1-.27,3.5Q824.2,78.88,834,72.41T854.13,65.94ZM814,117.16q-1.62,11.6-8.36,49.61,7.54,8.37,16.72,8.36,10,0,17.26-14.69t7.28-39.77q0-13.76-3.64-22.11t-9.84-8.36q-4.32,0-9.85,7.42T814,117.16Z" transform="translate(-6.98 6)"/><path d="M939.59,65.67q20.49,0,20.49,24.26,0,10.78-5.93,38.29t-5.93,34q0,10.78,8.63,16.18-3.78,10.24-11.19,15.5a27.57,27.57,0,0,1-16.31,5.26q-22.92,0-22.92-24.54,0-12.66,6.07-39.9t6.06-34q0-11.59-8.36-12.68,1.35-9.44,9.58-15.9T939.59,65.67Zm3.78-12.41q-10.25,0-15.51-6.06a21.7,21.7,0,0,1-5.25-14.7,27.8,27.8,0,0,1,7.14-18.74Q936.89,5.54,949,5.54q10,0,15.37,6.47a23.27,23.27,0,0,1,5.39,15.37,26.4,26.4,0,0,1-6.87,18.2Q956,53.26,943.37,53.26Z" transform="translate(-6.98 6)"/><path d="M1029.91,128.22q-3.77,31.82-3.77,48.8a135.2,135.2,0,0,0,1.08,15.37,54.8,54.8,0,0,1-22.65,4.58q-20.76,0-20.76-15.1,0-1.34,5.39-36.53t5.39-43.54q0-11.86-8.35-13.76a24.51,24.51,0,0,1,9.57-16.31,28.45,28.45,0,0,1,17.66-6.06q22.9,0,22.91,22.37c0,.37,0,1-.13,2s-.14,1.75-.14,2.29A58.41,58.41,0,0,1,1055.66,73q11.46-6.75,22-6.74,14.28,0,22.11,8.76t7.82,22.78q0,4.86-5.53,31.68t-5.53,33q0,10.78,9.17,16.18a28.9,28.9,0,0,1-11,15.1,29.38,29.38,0,0,1-17,5.39,23.68,23.68,0,0,1-16.45-6.07q-6.74-6.06-6.74-16.58,0-8.62,5.12-34.64t5.13-36q0-15.09-8.9-15.1-6.48,0-14.43,11.33A75.07,75.07,0,0,0,1029.91,128.22Z" transform="translate(-6.98 6)"/><path d="M1196,66.21q29.93,0,55.81,17.79a701.12,701.12,0,0,0-13.21,72q-.81,5.4-1.75,15.23c-.63,6.57-1.17,11.82-1.62,15.78s-1.17,8.89-2.15,14.83a116,116,0,0,1-3.24,14.56q-1.75,5.66-4.85,12.94a46,46,0,0,1-7,11.86,83,83,0,0,1-9.84,9.57,44.65,44.65,0,0,1-13.07,7.69,98.67,98.67,0,0,1-16.85,4.45,121.1,121.1,0,0,1-21.3,1.75q-17,0-28.31-4.72t-11.33-13.35a16.25,16.25,0,0,1,5.66-12.26,38.78,38.78,0,0,1,11.6-7.69q7.54,13.76,25.07,13.75,34.51,0,37.21-65.52-7.83,12.67-17.8,18.47t-18.87,5.8q-17,0-25.48-14.16t-8.49-34.37q0-34.25,20.09-59.32T1196,66.21Zm-15.64,108.92q4.59,0,11.33-7.95t11-21.71q1.35-7.54,3.51-23.72t3.23-21.84q-7.55-9.7-16.44-9.71-10.53,0-17.4,15.37t-6.87,37.48q0,14.3,3.1,23.19C1173.93,172.17,1176.77,175.13,1180.36,175.13Z" transform="translate(-6.98 6)"/><path d="M1383.66,150.6q20,7.28,19.95,18.33,0,11.32-17.53,20.76t-41.52,9.44q-33.43,0-52.71-20.09t-19.28-53.79q0-28,9.3-50.15T1306,40.32a107.17,107.17,0,0,1,31.41-19,92.73,92.73,0,0,1,33.3-6.33q20.22,0,33.7,8.62t13.48,23.19q0,7.83-7,12.81t-18.34,6.34q-2.41-11.86-9.84-17.8a26.26,26.26,0,0,0-16.85-5.93q-21.57,0-34.78,23.05t-13.21,53.79q0,23.46,8.9,38.15t27,14.7Q1371.52,171.9,1383.66,150.6Z" transform="translate(-6.98 6)"/><path d="M1495.55,168.39q-7.56,14.84-18.34,22.79t-22.38,7.95q-15.09,0-24.53-12.27t-9.44-35.72a103.15,103.15,0,0,1,7.82-39.91,77.48,77.48,0,0,1,24.67-31.95q16.85-13.07,39.5-13.07,27.51,0,53.66,17.79-12.13,57.16-12.14,79a17.36,17.36,0,0,0,8.63,15.64q-7,20.49-27,20.49-11.05,0-15.91-5.93t-4.85-18.07A64.76,64.76,0,0,1,1495.55,168.39Zm1.88-22.92,6.75-45.56q-8.1-9.7-16.45-9.71-11.32,0-17.8,16.45t-6.47,36.94q0,13.49,3,22.51c2,6,4.85,9,8.63,9q5.12,0,11.59-8.22T1497.43,145.47Z" transform="translate(-6.98 6)"/><path d="M1615.26,128.22q-3.78,31.82-3.77,48.8a134.89,134.89,0,0,0,1.07,15.37,54.76,54.76,0,0,1-22.64,4.58q-20.78,0-20.77-15.1,0-1.34,5.4-36.53t5.39-43.54q0-11.86-8.36-13.76a24.59,24.59,0,0,1,9.57-16.31,28.45,28.45,0,0,1,17.66-6.06q22.92,0,22.92,22.37c0,.37,0,1-.13,2s-.14,1.75-.14,2.29A58.32,58.32,0,0,1,1641,73q11.46-6.75,22-6.74,12.94,0,20.63,7.41t9,19.55q19.41-27,42.6-27,14.29,0,22.11,8.76t7.82,22.78q0,4.86-5.53,31.68t-5.52,33q0,10.78,9.16,16.18a28.79,28.79,0,0,1-11,15.1,29.38,29.38,0,0,1-17,5.39,23.7,23.7,0,0,1-16.45-6.07q-6.74-6.06-6.74-16.58,0-8.62,5.13-34.64t5.12-36q0-15.09-8.9-15.1-6.47,0-14.29,10.79a71,71,0,0,0-11.32,25.07,14.89,14.89,0,0,1-.54,3q-3.51,29.12-3.51,47.45a135.2,135.2,0,0,0,1.08,15.37,54.76,54.76,0,0,1-22.64,4.58q-20.78,0-20.77-15.1,0-1.87,2.16-15.9t4.85-31.69q2.7-17.65,3.51-26.55v-1.89q0-6.74-3.1-10.92a9.29,9.29,0,0,0-7.69-4.18q-6.47,0-14.42,11.33A74.89,74.89,0,0,0,1615.26,128.22Z" transform="translate(-6.98 6)"/><path d="M1878.68,65.94a31.58,31.58,0,0,1,25.48,11.86q9.84,11.86,9.84,36.67,0,36.39-17.79,60.53t-40.45,24.13q-16.17,0-28.58-12.13-5.4,29.92-5.39,39.9,0,11.6,8.63,17-7.56,20.76-28.58,20.76-21.84,0-21.84-26.15,0-12.41,10-70.78t10-66.19q0-11.32-8.36-13.49,1.62-10.51,9.44-16.44a28.68,28.68,0,0,1,17.79-5.93q22.92,0,22.92,21.84a18.4,18.4,0,0,1-.27,3.5q7.27-12.14,17.12-18.6T1878.68,65.94Zm-40.18,51.22q-1.61,11.6-8.35,49.61,7.55,8.37,16.71,8.36,10,0,17.26-14.69t7.28-39.77q0-13.76-3.64-22.11t-9.84-8.36q-4.32,0-9.84,7.42T1838.5,117.16Z" transform="translate(-6.98 6)"/><text x="-6.98" y="6"/></svg>